<svg width="250" height="100" viewBox="0 0 250 100" fill="none" xmlns="http://www.w3.org/2000/svg">
<g clip-path="url(#clip0_347_1474)">
<path d="M171.884 49.9178C169.637 50.4358 163.703 50.7238 163.703 50.7238L162.973 53.0668C162.973 53.0668 165.911 52.8168 168.062 53.0288C168.062 53.0288 168.754 52.9708 168.831 53.7968C168.869 54.6418 168.773 55.5258 168.773 55.5258C168.773 55.5258 168.715 56.0438 168.005 56.1788C167.179 56.3128 161.609 56.5628 161.609 56.5628L160.707 59.5968C160.707 59.5968 160.38 60.2888 161.129 60.0968C161.821 59.9038 167.659 58.7908 168.427 58.9438C169.234 59.1358 170.156 60.2498 169.887 61.2488C169.58 62.4588 163.741 66.1838 160.207 65.9348C160.207 65.9348 158.345 66.0498 156.789 63.5348C155.291 61.1338 157.307 56.6198 157.307 56.6198C157.307 56.6198 156.405 54.5078 157.077 53.7398C157.077 53.7398 157.461 53.4128 158.613 53.3168L160.054 50.3598C160.054 50.3598 158.421 50.4558 157.461 49.2648C156.578 48.1128 156.501 47.6128 157.192 47.3058C157.922 46.9218 164.682 45.7118 169.33 45.8658C169.33 45.8658 170.962 45.6738 172.403 48.4958C172.403 48.4958 173.056 49.6488 171.903 49.9178M154.369 61.2878C153.793 62.6888 152.199 64.1678 150.279 63.2648C148.319 62.3428 145.227 56.0448 145.227 56.0448C145.227 56.0448 144.075 53.7008 143.845 53.7778C143.845 53.7778 143.595 53.3178 143.461 55.8908C143.269 58.4448 143.499 63.4188 142.443 64.2058C141.483 64.9748 140.33 64.6478 139.677 63.7458C139.139 62.8428 138.909 60.6728 139.217 56.8888C139.562 53.1058 140.427 49.0728 141.521 47.8248C142.673 46.5568 143.595 47.4788 143.941 47.8248C143.941 47.8248 145.419 49.1688 147.916 53.1448L148.339 53.8748C148.339 53.8748 150.605 57.6568 150.835 57.6378C150.835 57.6378 151.027 57.8298 151.181 57.6768C151.411 57.6188 151.335 56.3898 151.335 56.3898C151.335 56.3898 150.912 52.2998 148.8 45.3848C148.8 45.3848 148.492 44.5018 148.704 43.6568C148.896 42.8888 149.721 43.2728 149.721 43.2728C149.721 43.2728 152.91 44.8088 154.465 49.9948C156.002 55.1798 154.965 59.8848 154.388 61.2868M138.736 47.9778C138.429 48.5158 138.294 49.2648 136.969 49.4758C136.969 49.4758 124.102 50.3788 123.469 51.2808C123.469 51.2808 123.046 51.8188 123.737 51.9538C124.467 52.1068 127.386 52.4908 128.769 52.5678C130.267 52.5678 135.299 52.6068 137.142 54.8728C137.142 54.8728 138.198 55.9478 138.16 58.3868C138.122 60.8838 137.68 61.7668 136.7 62.6698C135.683 63.5148 126.964 67.4328 121.336 61.4398C121.336 61.4398 118.763 58.5598 122.239 56.3698C122.239 56.3698 124.736 54.8338 131.131 56.6198C131.131 56.6198 133.051 57.3118 132.975 58.0218C132.859 58.7908 131.381 59.5588 129.23 59.5198C127.155 59.4628 125.62 58.4638 125.926 58.6368C126.214 58.7328 123.679 57.4068 122.892 58.3098C122.124 59.1558 122.316 59.6548 123.084 60.1728C125.004 61.2868 132.552 60.8838 134.799 58.3678C134.799 58.3678 135.702 57.3498 134.339 56.5238C132.994 55.7558 129.076 55.2758 127.559 55.2178C126.119 55.1418 120.722 55.2178 119.915 53.8168C119.915 53.8168 119.147 52.8168 119.992 50.0908C120.875 47.2098 127.155 46.0958 129.882 45.8658C129.882 45.8658 137.372 45.5578 138.775 47.0948C138.775 47.0948 138.967 47.4398 138.736 47.9588M117.496 64.8588C116.593 65.5318 114.672 65.2428 114.116 64.4748C113.578 63.8028 113.386 61.1528 113.481 56.9848C113.616 52.7218 113.674 47.4978 114.634 46.6528C115.594 45.8268 116.17 46.5568 116.554 47.1128C116.939 47.6898 117.438 48.3228 117.514 49.6488C117.63 50.9928 117.956 57.9068 117.956 57.9068C117.956 57.9068 118.379 64.2068 117.515 64.8588M119.415 42.3888C116.765 43.2918 114.96 43.0038 113.424 42.3318C112.752 43.5418 112.348 43.9068 111.849 43.9828C111.081 44.0598 110.409 42.8308 110.313 42.4468C110.159 42.1588 109.794 41.6408 110.236 40.4688C108.738 39.1248 108.623 37.3188 108.892 36.1088C109.237 34.6888 111.772 29.3488 119.454 28.7148C119.454 28.7148 123.218 28.4468 123.872 30.4438H123.987C123.987 30.4438 127.636 30.4438 127.559 33.7088C127.559 36.9738 123.526 41.0448 119.416 42.4468M122.834 33.0938C120.414 33.4778 116.689 36.7038 114.903 39.3738C117.649 39.8738 122.45 39.6818 124.601 35.3408C124.601 35.3408 125.619 32.6138 122.834 33.0938ZM112.214 35.2068C111.446 36.4548 111.407 37.2038 111.772 37.7028C112.675 36.3588 114.269 34.2468 116.67 32.5948C114.826 32.7868 113.27 33.5548 112.214 35.2068ZM177.646 64.7248C175.879 69.0648 174.381 73.4628 173.517 80.0508C173.517 80.0508 173.324 81.3368 172.268 80.9148C171.212 80.5308 169.483 78.8018 169.099 76.3628C168.715 73.1748 170.136 67.7978 173.036 61.6128C172.191 60.2688 171.596 58.2728 172.076 55.4678C172.076 55.4678 172.844 50.2828 178.03 45.5968C178.03 45.5968 178.644 45.0778 178.99 45.2508C179.412 45.4428 179.24 47.0948 178.894 47.9398C178.587 48.7458 176.282 52.7408 176.282 52.7408C176.282 52.7408 174.842 55.4678 175.245 57.5998C177.972 53.4128 184.175 44.9248 188.016 47.6128C190.455 49.3418 190.455 54.9108 188.631 58.1378C187.191 60.6918 183.119 65.9728 177.684 64.7438M185.673 51.6838C184.252 53.2208 181.717 56.1398 179.72 60.0958C181.832 59.8658 183.887 58.6948 184.521 58.0988C185.539 57.1968 187.882 54.7578 187.517 51.5308C187.517 51.5308 187.287 49.8398 185.673 51.6838ZM99.6345 66.9918C92.8355 69.0658 86.4215 68.1058 82.9255 67.1838C82.8295 68.6048 82.6755 69.2008 82.4455 69.4308C82.1765 69.7378 79.9485 71.0058 78.7195 69.2008C78.1825 68.3368 77.9135 66.7808 77.7595 65.3598C69.8855 61.7878 66.2365 56.5248 66.1215 56.3328C65.9295 56.1408 64.1435 54.2778 65.9295 51.9728C67.5995 49.8998 73.1315 47.8058 78.0865 46.9808C78.2785 42.7548 78.7395 39.4908 79.3345 38.0508C80.0445 36.3208 80.9475 37.8578 81.7545 39.0108C82.4075 39.8748 82.8105 43.5808 82.8495 46.5388C86.0755 46.3848 88.0345 46.6158 91.6255 47.3068C96.3505 48.1138 99.4995 50.5328 99.2505 53.2598C99.0205 55.9498 96.5605 57.0628 95.6005 57.1398C94.6405 57.2168 93.1045 56.5058 93.1045 56.5058C92.0295 56.0058 93.0085 55.5458 94.2565 55.0078C95.6395 54.3358 95.3325 53.6638 95.3325 53.6638C94.8325 52.1268 88.7065 51.1098 82.6185 51.1098C82.6185 54.4698 82.7535 60.0398 82.8485 63.2858C87.1125 64.0918 90.3005 63.9188 90.3005 63.9188C90.3005 63.9188 105.857 63.4778 106.299 53.5488C106.779 43.5998 90.7425 34.0748 78.9315 31.0788C67.1395 27.9868 60.4555 30.1758 59.8795 30.4638C59.2455 30.7708 59.8225 30.8868 59.8225 30.8868C59.8225 30.8868 60.4555 30.9828 61.6085 31.3668C62.7605 31.7508 61.8385 32.3268 61.8385 32.3268C59.8225 33.0178 57.5755 32.6148 57.1335 31.6928C56.6905 30.7898 57.4205 29.9638 58.2855 28.7538C59.0925 27.5058 60.0145 27.5438 60.0145 27.5438C74.6105 22.4538 92.4325 31.5768 92.4325 31.5768C109.103 39.9888 111.945 49.8798 111.638 53.7208C111.369 57.5038 109.909 63.8988 99.6345 67.0108M67.5605 53.2578C65.9095 54.0268 67.0605 55.2558 67.0605 55.2558C70.1725 58.5778 73.9755 60.6718 77.6245 61.9778C78.0465 56.2158 78.0085 54.1608 78.0085 51.2608C72.3625 51.6448 69.0975 52.5668 67.5605 53.2578Z" fill="#1E1D30"/>
</g>
<defs>
<clipPath id="clip0_347_1474">
<rect width="133" height="55" fill="white" transform="translate(57 26)"/>
</clipPath>
</defs>
</svg>
