<svg width="250" height="100" viewBox="0 0 250 100" fill="none" xmlns="http://www.w3.org/2000/svg">
<mask id="mask0_347_2631" style="mask-type:luminance" maskUnits="userSpaceOnUse" x="28" y="29" width="193" height="39">
<path d="M220.249 29.7534H28.6953V67.8186H220.249V29.7534Z" fill="white"/>
</mask>
<g mask="url(#mask0_347_2631)">
<path d="M44.0863 35.6223C41.8503 35.6223 41.2038 36.6187 41.2038 38.8164V42.4622H47.168L46.5702 48.3522H41.2061V66.2273H34.0485V48.3522H29.2266V42.4622H34.0485V38.9166C34.0485 32.9753 36.4328 29.837 43.0853 29.837C44.4793 29.8337 45.8723 29.9169 47.256 30.0861V35.6293L44.0863 35.6223Z" fill="#1E1D30"/>
<path d="M47.6641 53.5956C47.6641 46.9559 50.7945 41.9551 57.3543 41.9551C60.9319 41.9551 63.117 43.8036 64.162 46.0991V42.4626H71.0183V66.2278H64.162V62.6332C63.1679 64.9312 60.9319 66.7284 57.3543 66.7284C50.7945 66.7284 47.6641 61.7347 47.6641 55.0879V53.5956ZM54.8194 55.1949C54.8194 58.7383 56.11 61.0851 59.4397 61.0851C62.3732 61.0851 63.8631 58.9386 63.8631 55.5442V53.158C63.8631 49.7635 62.3732 47.617 59.4397 47.617C56.11 47.617 54.8194 49.9638 54.8194 53.5072V55.1949Z" fill="#1E1D30"/>
<path d="M85.9281 41.9619C88.7087 41.9619 91.3432 42.5625 92.7845 43.559L91.195 48.6528C89.7041 47.9394 88.0753 47.5643 86.4241 47.554C82.5474 47.554 80.863 49.8006 80.863 53.6465V55.0434C80.863 58.8893 82.5521 61.1359 86.4241 61.1359C88.0753 61.1256 89.7041 60.7504 91.195 60.037L92.7845 65.1286C91.3432 66.1273 88.7111 66.728 85.9281 66.728C77.5286 66.728 73.7031 62.1835 73.7031 54.8943V53.7956C73.7031 46.5063 77.5286 41.9619 85.9281 41.9619Z" fill="#1E1D30"/>
<path d="M93.7266 55.253V53.1577C93.7266 46.418 97.5521 41.9829 105.356 41.9829C112.711 41.9829 115.941 46.4762 115.941 53.067V56.8617H100.879C101.03 60.1071 102.471 61.5552 106.441 61.5552C109.126 61.5552 111.958 61.0058 114.045 60.1071L115.355 65.031C113.466 66.0321 109.59 66.7794 106.163 66.7794C97.1049 66.7771 93.7266 62.2373 93.7266 55.253ZM100.882 52.1566H109.529V51.5584C109.529 48.9626 108.487 46.9022 105.359 46.9022C102.126 46.9045 100.882 48.9533 100.882 52.1474V52.1566Z" fill="#1E1D30"/>
<path d="M142.458 55.0945C142.458 61.7342 139.279 66.7349 132.726 66.7349C129.149 66.7349 126.665 64.9376 125.671 62.6397V66.2343H118.914V30.5283L126.069 29.8765V45.7541C127.112 43.6588 129.399 41.9593 132.729 41.9593C139.288 41.9593 142.461 46.9531 142.461 53.5997L142.458 55.0945ZM135.303 53.4461C135.303 50.1007 134.012 47.605 130.583 47.605C127.65 47.605 126.06 49.7003 126.06 53.0969V55.5926C126.06 58.9869 127.65 61.0846 130.583 61.0846C134.012 61.0846 135.303 58.5889 135.303 55.2434V53.4461Z" fill="#1E1D30"/>
<path d="M144.859 54.9433V53.7466C144.859 46.9044 148.735 41.9619 156.637 41.9619C164.538 41.9619 168.417 46.9044 168.417 53.7466V54.9433C168.417 61.7831 164.541 66.728 156.639 66.728C148.738 66.728 144.859 61.7831 144.859 54.9433ZM161.26 53.2461C161.26 50.1008 159.967 47.6052 156.626 47.6052C153.283 47.6052 152.003 50.1008 152.003 53.2461V55.4438C152.003 58.5891 153.296 61.0847 156.626 61.0847C159.955 61.0847 161.26 58.5891 161.26 55.4438V53.2461Z" fill="#1E1D30"/>
<path d="M170.789 54.9433V53.7466C170.789 46.9044 174.666 41.9619 182.566 41.9619C190.468 41.9619 194.344 46.9044 194.344 53.7466V54.9433C194.344 61.7832 190.468 66.7281 182.566 66.7281C174.666 66.7281 170.789 61.7832 170.789 54.9433ZM187.189 53.2461C187.189 50.1008 185.896 47.6052 182.566 47.6052C179.237 47.6052 177.947 50.1008 177.947 53.2461V55.4438C177.947 58.5891 179.237 61.0847 182.566 61.0847C185.896 61.0847 187.189 58.5891 187.189 55.4438V53.2461Z" fill="#1E1D30"/>
<path d="M204.189 53.7953L211.244 42.4621H218.848L211.445 54.1958L219.146 66.2273H211.544L204.189 54.5869V66.2273H197.031V30.5283L204.189 29.8765V53.7953Z" fill="#1E1D30"/>
</g>
</svg>
