<svg width="250" height="100" viewBox="0 0 250 100" fill="none" xmlns="http://www.w3.org/2000/svg">
<g clip-path="url(#clip0_347_2239)">
<path d="M46.0136 33.2798H34.3596V34.2238H38.1376V53.4358C38.1376 59.2628 36.5636 60.8368 32.9436 60.8368C30.7386 60.8368 30.2666 59.1058 30.2666 58.3168C30.2666 56.2708 30.1086 54.8548 28.2166 54.8548C26.3286 54.8548 26.0156 56.7438 26.0156 57.3748C26.0156 60.0508 27.2736 62.0978 32.4706 62.0978C38.7706 62.0978 42.0756 60.0508 42.0756 52.9658V34.2218H45.8556V33.2808L46.0136 33.2798ZM47.5896 57.6868C46.9596 57.6868 46.3286 57.8488 46.0136 58.3168C45.5406 58.7908 45.3836 59.2628 45.3836 59.8938C45.3836 60.5198 45.5406 60.9938 46.0136 61.4698C46.4856 61.9398 46.9586 62.0958 47.5896 62.0958C48.2176 62.0958 48.6896 61.9378 49.1626 61.4688C49.6356 60.9968 49.7926 60.5188 49.7926 59.8938C49.7926 59.2638 49.6356 58.7908 49.1626 58.3178C48.6906 57.8448 48.2176 57.6878 47.5866 57.6878L47.5896 57.6868ZM73.4136 57.6868C72.7836 57.6868 72.3106 57.8488 71.8376 58.3168C71.3676 58.7908 71.2096 59.2628 71.2096 59.8938C71.2096 60.5198 71.3676 60.9938 71.8376 61.4698C72.3106 61.9398 72.7836 62.0958 73.4136 62.0958C74.0436 62.0958 74.6736 61.9378 74.9896 61.4688C75.4606 60.9948 75.6186 60.5188 75.6186 59.8938C75.6186 59.2638 75.4606 58.7908 74.9886 58.3178C74.5156 57.8448 74.0446 57.6878 73.4116 57.6878L73.4136 57.6868ZM65.2236 33.2808H53.8846V34.2238H57.1916V56.2728C57.1916 58.0048 57.0346 58.4748 56.8766 58.9478C56.7196 59.5808 56.2466 59.8958 55.4586 60.2108C54.9886 60.3678 54.1996 60.5238 53.0966 60.5238V61.4688H65.3806V60.5238C64.2776 60.5238 63.4916 60.3678 63.0166 60.2108C62.2306 59.8958 61.7586 59.4228 61.6026 58.9508C61.3923 58.3976 61.2849 57.8106 61.2856 57.2188V49.6558H64.2776C73.0976 49.6558 75.6166 46.1928 75.6166 41.4678C75.6166 36.5858 74.1996 33.2808 65.2236 33.2808ZM63.6476 48.5548H61.2856V34.3818H63.3336C70.1036 34.3818 71.6786 37.2168 71.6786 41.6248C71.6786 46.1908 69.0036 48.5548 63.6476 48.5548ZM111.994 58.7908C111.786 58.1823 111.679 57.5438 111.679 56.9008V34.2238H114.669V33.2808H107.429C107.272 33.5958 98.7696 54.6968 98.7696 54.6968L98.6126 54.8568C98.4546 54.8568 98.4546 54.8568 98.4546 54.6988C98.4546 54.6988 89.3226 33.4388 89.3226 33.2808H81.2856V34.2258H84.7506V58.1618C84.7506 58.6368 84.5926 59.1098 84.2776 59.5808C83.9735 60.0259 83.5304 60.3575 83.0176 60.5238C82.7016 60.6858 82.0736 60.6858 81.4406 60.6858V61.6268H89.3166V60.6818C88.6866 60.6818 88.3706 60.5238 87.9006 60.5238C87.2706 60.3658 86.9546 60.0508 86.6396 59.5778C86.3246 59.2628 86.1666 58.7908 86.1666 58.1618L86.0096 56.1128V37.2148H86.4816C86.4816 37.2148 96.7176 61.1498 96.8746 61.4648H97.6626L107.426 37.3748H107.741V56.8998C107.741 57.6878 107.584 58.3168 107.426 58.9468C107.268 59.5768 106.797 59.8928 106.167 60.2068C105.507 60.4258 104.815 60.5319 104.121 60.5208V61.4668H115.144V60.5208C114.448 60.5325 113.755 60.4267 113.095 60.2078C112.625 59.8928 112.152 59.4208 111.994 58.7908ZM126.953 40.8388C120.969 40.8388 117.348 44.7748 117.348 51.5468C117.348 61.6248 125.222 62.2558 126.795 62.2558C130.103 62.2558 136.403 60.2088 136.403 51.3918C136.403 44.4618 132.307 40.8388 126.953 40.8388ZM126.795 60.9948C122.387 60.9948 121.599 58.7918 121.599 51.7048C121.599 46.1928 121.914 42.0978 126.795 42.0978C131.992 42.0978 131.992 46.3478 131.992 51.3878C131.992 58.4748 130.733 60.9948 126.795 60.9948ZM151.836 41.1548C148.369 41.1548 147.113 43.2008 146.165 45.4048H145.85C145.85 45.4048 145.379 42.2548 145.222 41.4678H138.292V42.5698H142.07V56.4278C142.07 57.8438 141.914 58.7918 141.601 59.4178C141.284 60.0498 140.338 60.5208 138.922 60.5208H138.292V61.7808H149.945V60.5208H149.315C147.739 60.5208 147.113 60.2078 146.793 59.5768C146.48 58.9468 146.323 58.0018 146.323 56.5848V49.0268C146.323 46.6628 148.212 43.8298 150.418 43.8298C152.78 43.8298 152.62 47.2928 155.299 45.8768C156.56 45.0888 156.245 41.1528 151.836 41.1528V41.1548ZM197.659 59.4188C196.398 59.4188 196.085 58.7918 195.928 57.5318V46.5078C195.928 44.6178 195.611 43.5158 194.511 42.4108C193.408 41.3098 191.36 40.8348 188.369 40.8348C185.535 40.8348 183.488 41.3098 182.07 42.4108C180.811 43.3588 180.183 44.3018 180.183 45.7208C180.183 46.3468 180.34 46.8208 180.653 46.9788C180.969 47.2938 181.441 47.4518 181.912 47.4518C183.013 47.4518 183.646 46.8258 183.959 45.4048C184.12 44.3018 184.432 43.6738 184.906 43.0408C185.533 42.4148 186.482 42.0978 187.581 42.0978C189 42.0978 190.101 42.4108 190.574 43.1988C191.046 43.9868 191.362 44.9318 191.362 46.1888V49.4988C187.737 49.8138 178.92 50.5988 179.393 57.2148C179.55 59.7338 181.757 62.0948 184.747 62.0948C188.054 62.0948 190.099 60.2088 191.515 58.7888C191.675 60.2068 193.091 61.9398 195.455 61.9398C198.13 61.9398 199.706 60.6798 199.865 57.3718H199.235C199.235 58.6318 198.447 59.4208 197.659 59.4208V59.4188ZM191.677 57.2168V57.3738L191.519 57.5318C189.63 59.2648 188.056 59.8958 186.953 59.8958C184.118 59.8958 183.646 57.5318 183.646 56.4308C183.646 52.6518 188.842 50.7608 191.677 50.7608V57.2168ZM221.282 59.2628C220.967 58.6348 220.494 57.6868 220.494 56.2728V47.1368C220.494 45.8778 220.336 44.6168 219.863 43.8308C219.391 42.8858 218.605 42.2548 217.817 41.7828C216.871 41.3098 215.928 41.1538 214.827 41.1538C210.731 41.1538 209.155 43.6738 208.212 45.0898H207.897L207.109 41.4678H200.809V42.5698H203.961V56.4278C203.961 57.5308 203.801 58.3168 203.644 58.7918C203.484 59.4178 203.017 59.8918 202.543 60.0498C202.227 60.2078 201.597 60.3648 200.809 60.3648V61.6248H210.729V60.3648C209.784 60.2078 208.996 60.0498 208.683 59.5768C208.367 59.1048 208.054 58.1588 208.054 56.7428V51.3898C208.054 49.1868 208.054 46.9798 208.842 45.7198C209.628 44.3018 211.202 43.5158 212.778 43.5158C214.354 43.5158 215.14 43.9888 215.615 44.9318C216.085 45.7198 216.241 48.0818 216.241 49.6558V56.2708C216.241 57.3718 216.403 58.1608 216.241 58.6348C216.085 59.2608 215.928 59.7358 215.453 60.0488C215.14 60.3658 214.507 60.3658 213.879 60.5218V61.7818H223.488V60.5218C222.383 60.0518 221.597 59.7338 221.282 59.2628ZM176.245 39.8928C175.615 40.0508 175.299 40.6818 174.984 41.4698C174.827 42.2568 174.511 42.7278 174.039 42.8838C173.566 43.0438 173.095 43.0438 172.622 42.7278C171.521 41.7828 169.63 40.6818 166.165 40.6818C160.496 40.6818 158.134 44.6168 158.134 48.2378C158.134 52.4908 159.71 54.5398 163.328 55.3258C163.488 55.3258 163.488 55.6408 163.328 55.6408C160.338 56.2708 157.504 57.2168 157.504 60.0508C157.504 61.7848 158.449 62.7278 159.868 63.3588C161.282 63.9868 163.328 64.3038 165.85 64.3038C168.052 64.3038 169.628 64.4618 170.574 64.4618C171.523 64.584 172.435 64.9061 173.251 65.4068C173.881 65.8798 174.196 66.6678 174.196 67.6098C174.196 69.0278 173.408 69.9728 171.992 70.9188C170.578 71.7068 168.84 72.0218 166.48 72.0218C164.591 72.0218 162.86 71.8618 161.441 70.9188C160.34 70.2888 160.181 69.0288 160.34 68.0838C160.5 67.1388 160.181 66.1948 159.08 65.8798C158.745 65.8063 158.395 65.8434 158.082 65.9854C157.77 66.1275 157.512 66.3669 157.348 66.6678C157.031 67.1368 156.873 67.7678 156.873 68.5548C156.873 70.9168 158.764 72.0178 160.181 72.4908C162.385 73.1188 163.805 73.2788 165.692 73.2788C168.371 73.2788 170.416 72.8058 171.992 72.1758C173.568 71.3878 174.513 70.4438 175.142 69.3408C175.77 68.2398 176.087 67.1368 176.087 66.0338C176.087 64.6168 175.77 63.3568 175.142 62.5708C173.095 59.8938 170.258 60.2068 163.961 59.8938C160.969 59.8938 160.338 59.2638 160.338 58.3178C160.338 56.9008 161.441 56.4278 165.85 55.6408C170.258 55.0108 174.352 53.2788 174.352 48.0818C174.352 46.5058 174.039 45.2478 173.564 44.3038C174.511 44.4598 175.299 44.4598 176.085 44.3038C177.033 43.9888 177.502 43.5158 177.819 43.0438C178.134 42.4138 178.29 41.7828 177.976 41.3098C178.134 40.0508 177.346 39.5768 176.245 39.8928ZM166.325 54.6968C163.65 54.6968 162.229 53.7498 162.229 48.3968C162.229 44.6188 163.49 41.7828 166.325 41.7828C169.632 41.7828 170.576 44.3028 170.576 48.2398C170.576 53.9098 168.844 54.6968 166.325 54.6968Z" fill="#1E1D30"/>
</g>
<defs>
<clipPath id="clip0_347_2239">
<rect width="198" height="41" fill="white" transform="translate(26 33)"/>
</clipPath>
</defs>
</svg>
