<svg width="250" height="100" viewBox="0 0 250 100" fill="none" xmlns="http://www.w3.org/2000/svg">
<g clip-path="url(#clip0_347_1857)">
<path d="M110.157 38.314V61.68H106.101V43.344H106.047L98.799 61.68H96.095L88.685 43.344H88.63V61.68H84.898V38.314H90.74L97.447 55.622H97.555L104.64 38.314H110.157ZM113.511 40.099C113.511 39.45 113.727 38.909 114.214 38.477C114.701 38.044 115.242 37.827 115.891 37.827C116.594 37.827 117.189 38.044 117.621 38.477C118.054 38.909 118.325 39.45 118.325 40.099C118.325 40.749 118.108 41.289 117.621 41.722C117.135 42.155 116.594 42.371 115.891 42.371C115.187 42.371 114.647 42.155 114.214 41.721C113.781 41.235 113.511 40.694 113.511 40.099ZM117.891 44.913V61.68H113.943V44.913H117.891ZM129.845 58.813C130.44 58.813 131.089 58.705 131.792 58.381C132.486 58.1069 133.141 57.7431 133.74 57.299V60.977C133.069 61.367 132.338 61.6412 131.576 61.788C130.765 61.951 129.899 62.058 128.926 62.058C126.438 62.058 124.436 61.302 122.922 59.733C121.353 58.164 120.596 56.163 120.596 53.783C120.596 51.079 121.407 48.861 122.976 47.131C124.545 45.4 126.762 44.534 129.683 44.534C130.44 44.534 131.197 44.642 131.9 44.804C132.521 44.9428 133.121 45.1612 133.685 45.454V49.24C133.09 48.807 132.441 48.429 131.846 48.212C131.197 47.996 130.548 47.834 129.899 47.834C128.331 47.834 127.087 48.32 126.113 49.348C125.14 50.376 124.707 51.728 124.707 53.458C124.707 55.136 125.194 56.488 126.113 57.408C127.033 58.327 128.277 58.813 129.845 58.813ZM144.936 44.643C145.26 44.643 145.531 44.643 145.801 44.697C146.071 44.751 146.288 44.805 146.45 44.859V48.861C146.178 48.6538 145.864 48.5066 145.531 48.429C145.098 48.321 144.665 48.212 144.07 48.212C143.097 48.212 142.285 48.645 141.636 49.456C140.987 50.268 140.609 51.512 140.609 53.243V61.68H136.66V44.913H140.609V47.563H140.663C141.041 46.643 141.582 45.941 142.285 45.4C143.043 44.913 143.908 44.643 144.936 44.643ZM146.666 53.567C146.666 50.808 147.478 48.591 148.992 46.968C150.561 45.346 152.724 44.534 155.483 44.534C158.079 44.534 160.134 45.292 161.595 46.86C163.055 48.429 163.812 50.538 163.812 53.188C163.812 55.893 163.001 58.056 161.486 59.678C159.918 61.301 157.808 62.113 155.104 62.113C152.508 62.113 150.453 61.356 148.938 59.841C147.424 58.273 146.666 56.163 146.666 53.567ZM150.777 53.405C150.777 55.135 151.156 56.488 151.967 57.407C152.778 58.327 153.914 58.814 155.375 58.814C156.781 58.814 157.917 58.381 158.674 57.407C159.431 56.487 159.81 55.136 159.81 53.297C159.81 51.512 159.431 50.16 158.674 49.186C157.917 48.266 156.781 47.78 155.429 47.78C153.968 47.78 152.886 48.266 152.075 49.24C151.156 50.268 150.777 51.62 150.777 53.405ZM169.708 49.348C169.708 49.889 169.87 50.376 170.249 50.7C170.627 51.025 171.384 51.404 172.628 51.89C174.197 52.54 175.333 53.242 175.928 54C176.577 54.811 176.901 55.73 176.901 56.866C176.901 58.435 176.306 59.679 175.062 60.653C173.872 61.626 172.196 62.059 170.14 62.059C169.437 62.059 168.68 61.951 167.815 61.789C166.949 61.626 166.246 61.409 165.651 61.139V57.245C166.354 57.732 167.166 58.165 167.977 58.435C168.788 58.705 169.545 58.868 170.249 58.868C171.114 58.868 171.817 58.759 172.196 58.488C172.628 58.218 172.845 57.84 172.845 57.245C172.845 56.705 172.628 56.271 172.196 55.839C171.763 55.46 170.898 55.027 169.708 54.541C168.247 53.946 167.22 53.242 166.625 52.485C166.03 51.728 165.705 50.755 165.705 49.565C165.705 48.05 166.3 46.806 167.49 45.832C168.68 44.859 170.249 44.372 172.142 44.372C172.737 44.372 173.386 44.426 174.089 44.588C174.792 44.751 175.441 44.913 175.928 45.075V48.915C175.343 48.5551 174.728 48.2476 174.089 47.996C173.433 47.7445 172.736 47.616 172.033 47.617C171.276 47.617 170.681 47.78 170.303 48.05C169.924 48.429 169.708 48.807 169.708 49.348ZM178.578 53.567C178.578 50.808 179.389 48.591 180.904 46.968C182.472 45.346 184.636 44.534 187.394 44.534C189.991 44.534 192.046 45.292 193.506 46.86C194.967 48.429 195.724 50.538 195.724 53.188C195.724 55.893 194.912 58.056 193.398 59.678C191.829 61.301 189.72 62.113 187.016 62.113C184.42 62.113 182.364 61.356 180.85 59.841C179.389 58.273 178.578 56.163 178.578 53.567ZM182.689 53.405C182.689 55.135 183.067 56.488 183.879 57.407C184.69 58.327 185.826 58.814 187.286 58.814C188.692 58.814 189.828 58.381 190.585 57.407C191.343 56.487 191.721 55.136 191.721 53.297C191.721 51.512 191.343 50.16 190.585 49.186C189.828 48.266 188.692 47.78 187.34 47.78C185.88 47.78 184.798 48.266 183.987 49.24C183.121 50.268 182.689 51.62 182.689 53.405ZM208.867 48.158H202.972V61.68H198.969V48.158H196.157V44.913H198.969V42.587C198.969 40.857 199.564 39.397 200.7 38.26C201.836 37.124 203.296 36.584 205.081 36.584C205.568 36.584 206 36.638 206.379 36.638C206.758 36.638 207.082 36.746 207.353 36.854V40.261C207.124 40.1579 206.889 40.0678 206.649 39.991C206.282 39.8766 205.899 39.8219 205.514 39.829C204.702 39.829 204.053 40.099 203.621 40.586C203.188 41.073 202.972 41.884 202.972 42.858V44.858H208.867V41.073L212.815 39.883V44.859H216.818V48.104H212.815V55.947C212.815 56.974 213.032 57.677 213.356 58.11C213.735 58.543 214.33 58.76 215.141 58.76C215.358 58.76 215.628 58.705 215.953 58.597C216.277 58.489 216.548 58.381 216.764 58.218V61.464C216.493 61.626 216.115 61.734 215.52 61.842C214.949 61.9498 214.37 62.0044 213.789 62.005C212.112 62.005 210.868 61.572 210.057 60.706C209.246 59.841 208.813 58.489 208.813 56.704L208.867 48.158ZM52.468 30.5H34V48.968H52.468V30.5ZM73 30.5H54.53V48.968H73V30.5ZM52.468 51.032H34V69.5H52.468V51.032ZM73 51.032H54.53V69.5H73V51.032Z" fill="#1E1D30"/>
</g>
<defs>
<clipPath id="clip0_347_1857">
<rect width="183" height="40" fill="white" transform="translate(34 30)"/>
</clipPath>
</defs>
</svg>
